<?xml version="1.0" encoding="UTF-8"?>
<svg id="_ÉåÉCÉÑÅ__2" data-name="ÉåÉCÉÑÅ[_2" xmlns="http://www.w3.org/2000/svg" viewBox="0 0 966.7 966.7">
  <defs>
    <style>
      .cls-1 {
        fill: #1452a3;
      }

      .cls-2 {
        fill: #fff;
        stroke: #231f20;
        stroke-miterlimit: 10;
      }
    </style>
  </defs>
  <circle class="cls-2" cx="483.35" cy="483.35" r="482.85"/>
  <g>
    <rect class="cls-1" x="533.23" y="767.93" width="36.75" height="36.75" transform="translate(-56.09 42.5) rotate(-4.2)"/>
    <path class="cls-1" d="m585.17,747.44c-4.39-4.64-11.72-4.85-16.37-.45-.05.04-5.97,4.47-19.68,5.47-13.7,1.01-20.21-2.5-20.27-2.54-5.24-3.67-12.46-2.4-16.13,2.84-3.67,5.24-2.4,12.46,2.84,16.13,1.99,1.4,13.08,8.29,35.25,6.67,22.17-1.63,32.13-10.07,33.9-11.75,4.64-4.4,4.85-11.72.45-16.37Z"/>
    <path class="cls-1" d="m618.57,428.09h-328.35c-25.92,0-80.65,31.54-80.65,64.57v93.1c0,18.02,54.73,91.6,86.41,91.6h87.85c19.26,0,70.57-87.46,70.57-87.46,0,0,51.31,87.46,70.57,87.46h87.85c31.68,0,86.41-73.58,86.41-91.6v-93.1c0-33.04-54.72-64.57-80.65-64.57Z"/>
    <path class="cls-1" d="m618.57,428.09h-104.64l-240.53,240.53c8.07,5.41,15.84,8.75,22.57,8.75h87.85c19.26,0,70.57-87.46,70.57-87.46,0,0,7.03,11.97,16.85,27.05l179.55-179.56c-11.88-5.83-23.63-9.31-32.22-9.31Z"/>
    <path class="cls-1" d="m699.22,492.66c0-8.06-3.27-16.03-8.58-23.48l-189.35,189.35c9.27,10.98,17.91,18.84,23.67,18.84h5.82l168.44-168.44v-16.26Z"/>
    <path class="cls-1" d="m612.81,691.84h-87.85c-11.76,0-25.51-8.49-54.38-49.93-5.98-8.58-11.56-17.11-16.19-24.38-4.62,7.27-10.2,15.79-16.18,24.38-28.87,41.44-42.62,49.93-54.39,49.93h-87.85c-40.83,0-100.88-80.71-100.88-106.08v-93.1c0-43.26,62.98-79.05,95.13-79.05h328.35c32.15,0,95.12,35.79,95.12,79.05v93.1c0,25.37-60.05,106.08-100.88,106.08Zm-86.5-28.95h86.5c7.02,0,23.4-10.17,42.81-32.49,18.06-20.78,28.33-39.84,29.13-44.91v-92.82c0-22.03-44.86-50.1-66.17-50.1h-328.35c-21.32,0-66.17,28.07-66.17,50.1v92.82c.8,5.07,11.07,24.14,29.13,44.91,19.4,22.32,35.79,32.49,42.8,32.49h86.5c9.66-5.02,36.47-41.2,59.43-80.31,2.6-4.43,7.35-7.15,12.49-7.15s9.89,2.72,12.48,7.15c22.96,39.12,49.78,75.29,59.43,80.31Z"/>
    <path class="cls-1" d="m515.37,841.32c.63,0-.61-43.42-.61-43.42,30.4-.88,88.61-4.81,99.24-9.64,14.03-6.54,70.96-70.7,89.03-106.25,11.72-23.06,17.91-53.56,17.91-88.22V151.32h43.43v442.47c0,28.91-3.92,71.09-22.62,107.89-18.05,35.52-80.31,112.72-109.77,126.11-24,10.91-103.96,13.18-115.97,13.52-.21,0-.42,0-.63,0Z"/>
    <rect class="cls-1" x="713.7" y="507.9" width="57.9" height="62.73"/>
    <rect class="cls-1" x="713.7" y="119.96" width="57.9" height="62.73"/>
    <rect class="cls-1" x="487.44" y="792.9" width="33.07" height="53.26" transform="translate(-29.47 18.87) rotate(-2.08)"/>
  </g>
</svg>